<?xml version="1.0" standalone="no"?><!DOCTYPE svg PUBLIC "-//W3C//DTD SVG 1.1//EN" "http://www.w3.org/Graphics/SVG/1.1/DTD/svg11.dtd"><svg t="1584535560096" class="icon" viewBox="0 0 1026 1024" version="1.1" xmlns="http://www.w3.org/2000/svg" p-id="3571" xmlns:xlink="http://www.w3.org/1999/xlink" width="200.390625" height="200"><defs><style type="text/css"></style></defs><path d="M536.017 999.313c-33.911 33.866-89.977 32.735-125.29-2.532L27.265 613.815c-35.312-35.267-36.443-91.288-2.532-125.154L454.45 59.531C488.36 25.667 555.504-0.964 604.426 0.03l261.34 5.245c35.267 0.724 80.3 16.413 116.065 38.206 21.793 35.72 37.528 80.663 38.251 115.885l5.245 260.977c0.995 48.877-25.682 115.93-59.593 149.796L536.017 999.313z m258.4-768.328c-35.312-35.313-92.554-35.313-127.866 0-35.313 35.312-35.313 92.553 0 127.866 35.312 35.312 92.554 35.312 127.866 0 35.358-35.313 35.358-92.554 0-127.866z m-95.9 351.677L442.74 326.884c-17.633-17.633-46.3-17.633-63.933 0-17.633 17.68-17.633 46.3 0 63.933l255.778 255.778c17.634 17.634 46.3 17.634 63.933 0 17.68-17.633 17.68-46.3 0-63.933z m-95.9 95.9L346.84 422.784c-17.634-17.634-46.3-17.634-63.933 0-17.634 17.679-17.634 46.3 0 63.933l255.777 255.778c17.68 17.679 46.3 17.679 63.934 0 17.633-17.633 17.633-46.254 0-63.933z m-95.9 95.945L250.94 518.729c-17.634-17.679-46.3-17.679-63.933 0-17.68 17.679-17.68 46.3 0 63.933L442.785 838.44c17.678 17.679 46.3 17.679 63.933 0 17.633-17.679 17.633-46.3 0-63.933z m511.557-703.581c-9.857-9.857-22.608-18.945-36.443-27.4-8.455-13.836-17.589-26.586-27.445-36.398l63.888 63.798z" p-id="3572"></path></svg>