<?xml version="1.0" standalone="no"?><!DOCTYPE svg PUBLIC "-//W3C//DTD SVG 1.1//EN" "http://www.w3.org/Graphics/SVG/1.1/DTD/svg11.dtd"><svg t="1584773616742" class="icon" viewBox="0 0 1024 1024" version="1.1" xmlns="http://www.w3.org/2000/svg" p-id="7082" xmlns:xlink="http://www.w3.org/1999/xlink" width="200" height="200"><defs><style type="text/css"></style></defs><path d="M895.6 454.9l-14.3-14.3c-15.3-16-36.5-25.1-58.6-25-22.2 0-43.3 9.2-58.5 25.3L463.8 741.6c-5.3 4.8-7.8 11.7-7.8 18.8v88.9c0.1 8.2 3.6 16.3 9.4 22 5.9 5.8 14.3 7.8 22.6 7.7h87.9c7.6 0.8 15.2 0.4 21.1-4.5l300.1-300.4c15.9-15.8 24.8-37.5 24.5-59.9-0.3-22.5-9.7-43.8-26-59.3zM496 841v-68l67.3 68H496z m101-24.4l-75.3-75 231.7-232 75.4 75.3L597 816.6z m271.4-271.5l-10.8 10.8-75.3-75.4 10.8-10.7c7.5-8.4 18.3-13.2 29.5-13.2 11.3 0 22 4.8 29.5 13.2l14.5 13.9c8.7 7.7 13.8 18.7 14.1 30.3 0.4 11.6-4.1 22.9-12.3 31.1z" fill="" p-id="7083"></path><path d="M903 230.9c-0.3-47.8-37.6-86.5-85.4-86.9H188.4c-47.8 0.4-86.3 39.1-86.4 86.9v564c0.1 47.7 38.8 87.1 86.4 87.1h181.1c11.3 0 20.5-10 20.5-21.3s-9.2-20.5-20.5-20.5H188.4c-25-0.1-45.3-20.3-45.5-45.4v-564c0.1-25.2 20.3-45.6 45.5-46h629.2c25.2 0.4 44.1 20.8 44.4 46V340c1.9 9.5 12.2 17 22 17 9.7 0 17.1-7.3 19-16.9v-109.2z" fill="" p-id="7084"></path><path d="M492.5 495.2h-92.7v-46.4h92.7c9.5 1.1 19-3.2 24.3-10.9 5.3-7.9 5.3-18 0-25.9-5.2-7.7-14.8-11.9-24.3-10.8H415l75.9-75.9c9.4-9.4 9.4-24.6 0-34-9.4-9.4-24.6-9.4-34 0l-82 82-82-82c-9.4-9.4-24.6-9.4-34 0-9.4 9.4-9.4 24.6 0 34l75.9 75.9H261c-9.5-1.1-19 3.2-24.3 10.9-5.3 7.9-5.3 18 0 25.9 4.7 6.9 12.8 11 21.4 11 1 0 2-0.1 2.9-0.2h91.1v46.4H261c-9.5-1.1-19 3.2-24.3 10.9-5.3 7.9-5.3 18 0 25.9 4.7 6.9 12.8 11 21.4 11 1 0 2-0.1 2.9-0.2h91.1v99.7c-1.1 8.5 3.2 16.9 11.1 21.5 3.9 2.3 8.3 3.4 12.7 3.4s8.9-1.1 12.7-3.4c7.8-4.6 12.2-13 11.1-21.5V542.8h92.7c9.5 1.1 19-3.2 24.3-10.9 5.3-7.9 5.3-18 0-25.9-5.1-7.7-14.7-11.9-24.2-10.8z" fill="" p-id="7085"></path></svg>