<?xml version="1.0" standalone="no"?><!DOCTYPE svg PUBLIC "-//W3C//DTD SVG 1.1//EN" "http://www.w3.org/Graphics/SVG/1.1/DTD/svg11.dtd"><svg t="1583414938860" class="icon" viewBox="0 0 1024 1024" version="1.1" xmlns="http://www.w3.org/2000/svg" p-id="4449" xmlns:xlink="http://www.w3.org/1999/xlink" width="200" height="200"><defs><style type="text/css"></style></defs><path fill='red' d="M292.790857 242.468571l58.148572 11.337143a18.285714 18.285714 0 1 1-7.021715 35.84l-93.988571-18.285714a18.285714 18.285714 0 0 1-9.472-30.902857A382.793143 382.793143 0 0 1 512 128c212.077714 0 384 171.922286 384 384a382.902857 382.902857 0 0 1-29.147429 147.017143 18.285714 18.285714 0 1 1-33.792-14.043429A346.331429 346.331429 0 0 0 859.428571 512 347.428571 347.428571 0 0 0 512 164.571429a345.965714 345.965714 0 0 0-219.209143 77.897142z m237.494857 203.958858v10.715428H585.142857a18.285714 18.285714 0 1 1 0 36.571429h-54.857143v36.571428H585.142857a18.285714 18.285714 0 1 1 0 36.571429h-54.857143V658.285714a18.285714 18.285714 0 1 1-36.571428 0v-91.428571H438.857143a18.285714 18.285714 0 1 1 0-36.571429h54.857143v-36.571428H438.857143a18.285714 18.285714 0 1 1 0-36.571429h54.857143v-10.715428l-67.803429-67.766858a18.285714 18.285714 0 0 1 25.892572-25.892571L512 413.001143l60.196571-60.233143a18.285714 18.285714 0 0 1 25.892572 25.892571L530.285714 446.427429z m142.774857 323.803428a18.285714 18.285714 0 1 1 7.021715-35.913143l93.988571 18.322286a18.285714 18.285714 0 0 1 9.472 30.902857A382.793143 382.793143 0 0 1 512 896C299.922286 896 128 724.077714 128 512c0-51.090286 9.984-100.790857 29.147429-147.017143a18.285714 18.285714 0 1 1 33.792 14.043429A346.331429 346.331429 0 0 0 164.571429 512a347.428571 347.428571 0 0 0 347.428571 347.428571 345.965714 345.965714 0 0 0 219.209143-77.897142l-58.148572-11.337143z" p-id="4450"></path></svg>