<?xml version="1.0" standalone="no"?><!DOCTYPE svg PUBLIC "-//W3C//DTD SVG 1.1//EN" "http://www.w3.org/Graphics/SVG/1.1/DTD/svg11.dtd"><svg t="1584532176352" class="icon" viewBox="0 0 1251 1024" version="1.1" xmlns="http://www.w3.org/2000/svg" p-id="2091" xmlns:xlink="http://www.w3.org/1999/xlink" width="244.3359375" height="200"><defs><style type="text/css"></style></defs><path d="M1190.494 435.638L1070.944 222.2v-1.251c-1.878-3.756-4.382-6.885-8.137-8.763L634.054 51.326l-1.252-0.627-1.252-0.626c-3.13-1.877-6.259-2.503-9.389-2.503s-6.885 0.626-9.388 2.503l-1.252 0.626-1.252 0.626-427.501 161.487c-4.382 2.503-8.763 6.259-11.267 10.64l-119.55 214.69c-5.007 11.266 0 24.41 10.64 30.044l97.018 48.195 10.014 5.008v249.115c0 8.763 4.382 16.274 12.519 20.655L610.269 973.3c3.755 1.877 7.511 2.503 11.266 2.503 3.756 0 7.511-0.626 11.267-2.503l425.623-182.768h1.252c8.763-3.13 14.396-11.266 14.396-20.655V519.51l9.39-5.007 93.887-48.196 3.755-1.878h3.756c8.762-6.885 11.266-18.777 5.633-28.792z m-58.836-15.022l8.763 16.274-382.436 191.53-5.633 2.504-3.13-5.007-92.01-167.746-3.129-5.633 5.633-3.13 379.932-191.53 2.504 4.381 89.506 158.357z m-145.839-194.66l16.9 5.633-348.01 176.509-8.763 4.381V108.91l6.26 1.878 333.613 115.169zM593.37 110.787l15.022-5.007v302.944h-7.51l-1.879-1.252-352.39-177.76 11.892-4.382 334.865-114.543zM200.92 263.511l5.634-10.64 386.19 195.911 5.634 3.13-3.13 5.633-92.636 167.12-3.13 5.007-5.633-2.503-387.442-194.035 6.885-12.518 87.628-157.105z m26.289 499.482l-11.267-4.382V532.03l0.626 0.626 282.289 140.832c3.13 1.251 6.259 2.503 9.388 2.503 6.886 0 13.145-3.755 16.9-9.389L596.5 540.792l11.892-20.655v399.96l-15.648-6.258-365.535-150.846z m801.8-16.274v11.892l-10.641 4.382L652.83 913.839l-6.885 3.13V520.136l11.893 20.655 71.98 126.435c3.13 5.634 9.389 8.763 15.648 8.763 3.13 0 6.26-0.626 9.389-2.503l274.777-137.702v210.934z" p-id="2092"></path></svg>