<?xml version="1.0" standalone="no"?><!DOCTYPE svg PUBLIC "-//W3C//DTD SVG 1.1//EN" "http://www.w3.org/Graphics/SVG/1.1/DTD/svg11.dtd"><svg t="1584551008098" class="icon" viewBox="0 0 1024 1024" version="1.1" xmlns="http://www.w3.org/2000/svg" p-id="4307" xmlns:xlink="http://www.w3.org/1999/xlink" width="200" height="200"><defs><style type="text/css"></style></defs><path d="M749.69026 736.282156h-475.651305a23.736024 23.736024 0 0 0-24.201436 23.829107c0 13.031543 10.518317 23.270612 24.201436 23.270611h475.651305c13.403872 0 24.573766-10.239069 24.573766-23.270611a24.294519 24.294519 0 0 0-24.573766-23.829107z m-475.651305-473.97582h70.556495v67.577856c0 13.403872 10.983729 23.456777 24.387601 23.456777 14.148532 0 24.853013-10.052904 24.853013-23.456777v-67.577856h70.091083a24.387601 24.387601 0 0 0 24.573766-23.829107 24.201436 24.201436 0 0 0-24.573766-23.829106h-70.091083V147.070266a24.201436 24.201436 0 0 0-24.853013-23.642941 24.201436 24.201436 0 0 0-24.387601 23.642941v67.670939h-70.649577a23.736024 23.736024 0 1 0 0 47.658213z m-24.201436 165.128261c0 13.031543 10.518317 23.642942 24.201436 23.642941h475.651305a24.201436 24.201436 0 0 0 24.573766-23.642941 24.294519 24.294519 0 0 0-24.573766-23.829107h-475.651305a23.736024 23.736024 0 0 0-24.201436 23.829107z m715.245523-131.153168L669.918602 11.728388A43.190255 43.190255 0 0 0 640.876879 0h-484.959549C126.317112 0 98.392378 11.728388 78.658899 31.089537A101.92528 101.92528 0 0 0 46.545455 105.648577V918.723752c0 28.855559 12.100718 55.290974 32.206526 74.279793 20.105809 18.988819 47.56513 30.996455 77.258431 30.996455h711.429143c30.158713 0 56.780293-11.449141 76.420689-29.786383l1.023907-1.210072c19.919644-18.988819 32.485774-45.331152 32.485774-74.279793V324.299246a38.908463 38.908463 0 0 0-12.286883-27.924735zM664.89215 118.773202l188.957368 182.069267H709.38556a47.751295 47.751295 0 0 1-31.648032-12.379966l-1.023907-1.582401a42.352513 42.352513 0 0 1-11.821471-28.669394V118.773202zM895.457372 918.723752a24.201436 24.201436 0 0 1-8.098173 18.61649v0.279247a30.43796 30.43796 0 0 1-19.919644 7.260431H155.91733a27.645487 27.645487 0 0 1-19.361149-7.539678 26.063085 26.063085 0 0 1-8.098173-18.61649V105.648577c0-7.446596 3.164803-13.962367 8.098173-18.988819a29.693301 29.693301 0 0 1 19.361149-7.818925h459.827288v179.369875a86.566676 86.566676 0 0 0 26.063085 61.899827l1.396237 1.396237c17.313335 16.475593 40.583947 26.156168 66.18162 26.156168h186.164894V918.723752zM749.69026 570.316153h-475.651305a23.456777 23.456777 0 1 0 0 46.913553h475.651305a24.108354 24.108354 0 0 0 24.573766-23.549859c0-13.031543-11.169894-23.363694-24.573766-23.363694z" p-id="4308"></path></svg>