<?xml version="1.0" standalone="no"?><!DOCTYPE svg PUBLIC "-//W3C//DTD SVG 1.1//EN" "http://www.w3.org/Graphics/SVG/1.1/DTD/svg11.dtd"><svg t="1584625161958" class="icon" viewBox="0 0 1024 1024" version="1.1" xmlns="http://www.w3.org/2000/svg" p-id="20815" xmlns:xlink="http://www.w3.org/1999/xlink" width="200" height="200"><defs><style type="text/css"></style></defs><path d="M512 1024C229.69856 1024 0 794.30144 0 512S229.69856 0 512 0s512 229.69856 512 512-229.69856 512-512 512z m0-938.7008c-235.29984 0-426.7008 191.40096-426.7008 426.7008s191.40096 426.7008 426.7008 426.7008 426.7008-191.40096 426.7008-426.7008S747.29984 85.2992 512 85.2992z" fill="#606060" p-id="20816"></path><path d="M512 686.93504a40.96 40.96 0 0 1-40.96-40.96V384a40.96 40.96 0 0 1 81.92 0v261.97504a40.96 40.96 0 0 1-40.96 40.96z" fill="#606060" p-id="20817"></path><path d="M647.68 555.95008H381.01504a40.96 40.96 0 0 1 0-81.92H647.68a40.96 40.96 0 0 1 0 81.92z" fill="#606060" p-id="20818"></path></svg>