<?xml version="1.0" standalone="no"?><!DOCTYPE svg PUBLIC "-//W3C//DTD SVG 1.1//EN" "http://www.w3.org/Graphics/SVG/1.1/DTD/svg11.dtd"><svg t="1584615980669" class="icon" viewBox="0 0 1024 1024" version="1.1" xmlns="http://www.w3.org/2000/svg" p-id="19167" xmlns:xlink="http://www.w3.org/1999/xlink" width="200" height="200"><defs><style type="text/css"></style></defs><path d="M510.103704 43.614815c257.896296 0 466.488889 208.592593 466.488889 466.488889 0 257.896296-208.592593 466.488889-466.488889 466.488889-257.896296 0-466.488889-208.592593-466.488889-466.488889 0-257.896296 208.592593-466.488889 466.488889-466.488889z m0 75.851852c-216.177778 0-390.637037 174.459259-390.637037 390.637037 0 216.177778 174.459259 390.637037 390.637037 390.637037 216.177778 0 390.637037-174.459259 390.637037-390.637037 0-214.281481-174.459259-390.637037-390.637037-390.637037z" p-id="19168"></path><path d="M546.019556 743.215407c-18.962963 1.896296-30.340741-5.688889-34.133334-18.962963-1.896296-15.17037 5.688889-24.651852 22.755556-28.444444 98.607407-13.274074 164.977778-58.785185 197.214815-140.325926 7.585185-13.274074 17.066667-18.962963 32.237037-13.274074 13.274074 7.585185 18.962963 20.859259 13.274074 36.02963-41.718519 92.918519-117.57037 147.911111-231.348148 164.977777zM447.412148 599.096889v140.325926c-1.896296 9.481481-9.481481 15.17037-22.755555 17.066666-13.274074-1.896296-20.859259-7.585185-20.85926-18.962962v-144.118519c-26.548148 37.925926-60.681481 72.059259-100.503703 102.4-13.274074 5.688889-26.548148 3.792593-36.02963-3.792593-7.585185-11.377778-5.688889-22.755556 5.688889-32.237037 56.888889-39.822222 96.711111-81.540741 121.362963-125.155555h-91.022222c-13.274074 0-18.962963-7.585185-18.962963-20.859259 0-13.274074 5.688889-22.755556 18.962963-22.755556h100.503703v-30.340741c0-11.377778 7.585185-17.066667 20.85926-18.962963 13.274074 1.896296 22.755556 7.585185 22.755555 17.066667v32.237037h73.955556c13.274074 1.896296 22.755556 9.481481 22.755555 22.755556s-7.585185 20.859259-20.859259 20.859259h-75.851852v13.274074c36.02963 26.548148 68.266667 54.992593 94.814815 85.333333 11.377778 13.274074 11.377778 26.548148 1.896296 36.02963-13.274074 9.481481-26.548148 7.585185-36.029629-5.688889-13.274074-18.962963-32.237037-39.822222-60.681482-64.474074z" p-id="19169"></path><path d="M363.975111 464.459852c-13.274074 3.792593-22.755556 0-28.444444-15.170371-3.792593-7.585185-11.377778-18.962963-18.962963-36.029629-7.585185-17.066667-13.274074-30.340741-17.066667-37.925926-5.688889-13.274074-3.792593-22.755556 5.688889-28.444445 11.377778-5.688889 22.755556-3.792593 30.340741 7.585186 13.274074 26.548148 26.548148 53.096296 37.925926 77.748148 3.792593 15.17037 1.896296 26.548148-9.481482 32.237037zM436.03437 432.222815c-11.377778 5.688889-18.962963 1.896296-22.755555-11.377778-5.688889-7.585185-11.377778-20.859259-18.962963-36.02963-5.688889-15.17037-7.585185-26.548148-9.481482-32.237037-3.792593-9.481481-1.896296-17.066667 7.585186-22.755555 11.377778-3.792593 20.859259-1.896296 28.444444 5.688889 13.274074 30.340741 20.859259 53.096296 26.548148 68.266666 3.792593 13.274074 0 22.755556-11.377778 28.444445zM305.189926 278.622815c36.02963 0 73.955556-1.896296 117.57037-3.792593 41.718519-3.792593 75.851852-9.481481 100.503704-15.17037 13.274074-1.896296 22.755556 3.792593 28.444444 17.066667 1.896296 13.274074-3.792593 22.755556-17.066666 24.651851-56.888889 11.377778-130.844444 18.962963-225.659259 20.85926-15.17037-1.896296-24.651852-7.585185-24.651852-18.962963-1.896296-15.17037 5.688889-22.755556 20.859259-24.651852zM561.189926 350.682074c-18.962963 43.614815-36.02963 77.748148-54.992593 102.4-11.377778 11.377778-22.755556 13.274074-34.133333 5.688889-7.585185-7.585185-7.585185-18.962963 0-32.237037 18.962963-26.548148 36.02963-58.785185 51.2-92.918519 3.792593-11.377778 13.274074-15.17037 28.444444-11.377777 9.481481 7.585185 13.274074 15.17037 9.481482 28.444444zM585.841778 367.748741c47.407407-18.962963 85.333333-43.614815 111.881481-75.851852 9.481481-11.377778 20.859259-13.274074 32.237037-5.688889 9.481481 9.481481 11.377778 20.859259 1.896297 34.133333-32.237037 41.718519-75.851852 73.955556-128.948149 92.918519-15.17037 5.688889-26.548148 1.896296-32.237037-13.274074-3.792593-13.274074 1.896296-24.651852 15.170371-32.237037zM747.026963 460.667259c-43.614815 49.303704-98.607407 85.333333-161.185185 108.088889-15.17037 5.688889-26.548148 1.896296-32.237037-11.377778-3.792593-15.17037 1.896296-26.548148 17.066666-34.133333 62.577778-26.548148 109.985185-58.785185 142.222223-94.814815 11.377778-13.274074 22.755556-13.274074 34.133333-3.792592 9.481481 11.377778 9.481481 24.651852 0 36.029629z" p-id="19170"></path></svg>