<?xml version="1.0" standalone="no"?><!DOCTYPE svg PUBLIC "-//W3C//DTD SVG 1.1//EN" "http://www.w3.org/Graphics/SVG/1.1/DTD/svg11.dtd"><svg t="1584615571645" class="icon" viewBox="0 0 1024 1024" version="1.1" xmlns="http://www.w3.org/2000/svg" p-id="14179" xmlns:xlink="http://www.w3.org/1999/xlink" width="200" height="200"><defs><style type="text/css"></style></defs><path d="M533.407 610.216c0-3.284 0.121-6.446 0.243-9.73H346.583c-8.27 0-15.081-6.812-15.081-15.083 0-8.27 6.81-15.082 15.082-15.082H537.056c1.338-7.419 3.04-14.838 5.108-22.015H346.583c-8.27 0-15.081-6.81-15.081-15.082 0-8.27 6.81-15.082 15.082-15.082H553.232c35.03-77.721 113.238-131.846 204.095-131.846 4.135 0 8.15 0.121 12.285 0.365-11.434-84.776-47.436-153.497-96.331-187.432-0.122-0.121-0.243-0.243-0.365-0.243-0.73-0.486-1.338-0.973-2.068-1.338-0.243-0.243-0.608-0.365-0.851-0.608-0.608-0.365-1.338-0.851-1.946-1.216-0.365-0.244-0.73-0.487-1.095-0.608l-2.919-1.825c-0.486-0.365-1.095-0.608-1.581-0.973-0.487-0.243-0.973-0.486-1.46-0.851-0.608-0.365-1.094-0.608-1.702-0.973-0.487-0.244-0.852-0.487-1.338-0.73-0.73-0.365-1.46-0.73-2.068-1.095-0.365-0.121-0.608-0.365-0.973-0.486-1.095-0.487-2.068-0.973-3.163-1.46l-0.73-0.365-2.554-1.094c-0.243-0.122-0.608-0.244-0.85-0.365-0.852-0.365-1.825-0.73-2.677-1.095-0.243-0.122-0.365-0.122-0.608-0.243-2.31-0.852-4.5-1.581-6.811-2.311-0.122 0-0.365-0.122-0.487-0.122-0.973-0.365-2.067-0.608-3.04-0.851-0.122 0-0.365-0.122-0.487-0.122-2.31-0.608-4.744-1.216-7.176-1.703h-0.243c-1.095-0.243-2.19-0.365-3.284-0.608-0.122 0-0.365-0.121-0.487-0.121-1.095-0.244-2.31-0.365-3.406-0.487h-0.121c-1.216-0.122-2.554-0.365-3.77-0.486h-0.122c-1.095-0.122-2.311-0.244-3.406-0.244h-0.73c-0.973 0-1.946-0.121-2.919-0.121H323.474c-0.973 0-1.946 0.121-2.92 0.121h-0.729c-1.095 0.122-2.31 0.122-3.405 0.244h-0.122c-1.216 0.121-2.554 0.243-3.77 0.486h-0.122c-1.095 0.122-2.311 0.365-3.406 0.487-0.122 0-0.365 0-0.486 0.121-1.095 0.243-2.19 0.365-3.284 0.608h-0.244c-2.432 0.487-4.743 1.095-7.176 1.703-0.121 0-0.365 0.122-0.486 0.122-0.973 0.243-2.068 0.608-3.041 0.851-0.122 0-0.365 0.122-0.487 0.122-2.31 0.73-4.622 1.46-6.81 2.31-0.244 0.122-0.366 0.122-0.609 0.244-0.851 0.365-1.824 0.73-2.676 1.095-0.243 0.121-0.608 0.243-0.851 0.365l-2.554 1.094-0.73 0.365c-1.095 0.487-2.068 0.973-3.163 1.46-0.365 0.121-0.608 0.365-0.973 0.486-0.73 0.365-1.46 0.73-2.067 1.095-0.487 0.243-0.852 0.486-1.338 0.73-0.608 0.365-1.095 0.608-1.703 0.973-0.487 0.243-0.973 0.486-1.46 0.851-0.486 0.243-1.094 0.608-1.58 0.973l-2.92 1.825c-0.365 0.243-0.73 0.486-1.095 0.608-0.608 0.365-1.338 0.851-1.946 1.216-0.243 0.243-0.608 0.365-0.851 0.608-0.73 0.487-1.338 0.973-2.068 1.338-0.121 0.122-0.243 0.243-0.365 0.243-49.016 33.935-85.14 102.899-96.452 187.918-58.382 30.164-88.546 91.952-88.546 163.47 0 53.03 16.784 100.71 49.138 134.158v102.899c0 8.635 7.054 15.69 15.69 15.69h119.076c8.635 0 15.69-7.055 15.69-15.69v-53.76H570.747c-23.596-35.395-37.34-77.965-37.34-123.698zM229.21 309.547c1.338-3.162 2.798-6.203 4.257-9.243 0.122-0.365 0.365-0.73 0.487-1.095 0.486-1.095 1.094-2.19 1.58-3.162l1.095-2.19c0.365-0.73 0.852-1.581 1.217-2.31 0.486-0.852 0.851-1.582 1.338-2.433 0.121-0.244 0.365-0.608 0.486-0.852 19.947-35.88 46.463-60.085 75.654-65.558h0.243l2.19-0.365c0.364 0 0.73-0.122 0.972-0.122 0.974-0.121 1.825-0.243 2.798-0.365 0.608 0 1.216-0.121 1.824-0.121 0.487 0 0.852 0 1.338-0.122 0.973 0 1.946-0.121 2.798-0.121h275.977c0.974 0 1.947 0 2.798 0.121 0.486 0 0.851 0 1.338 0.122 0.608 0 1.216 0.121 1.824 0.121 0.973 0.122 1.825 0.244 2.798 0.365 0.365 0 0.73 0.122 0.973 0.122l2.19 0.365h0.242c29.192 5.473 55.707 29.678 75.654 65.558 0.122 0.244 0.365 0.608 0.487 0.852 0.486 0.851 0.851 1.58 1.338 2.432 0.364 0.73 0.851 1.581 1.216 2.311l1.095 2.19c0.486 1.094 1.094 2.067 1.58 3.162 0.122 0.365 0.366 0.73 0.487 0.973 1.46 3.04 2.92 6.081 4.257 9.244 8.028 18.488 14.474 39.165 19.096 61.301-12.041-2.19-24.69-3.405-38.192-3.405H248.43c-13.501 0-26.15 1.216-38.192 3.405 4.379-22.015 10.947-42.692 18.974-61.18z m-2.068 300.669c-32.961 0-59.598-26.637-59.598-59.599 0-32.961 26.637-59.598 59.598-59.598 32.84 0 59.477 26.637 59.477 59.598 0.122 33.084-26.637 59.599-59.477 59.599z" fill="" p-id="14180"></path><path d="M757.327 416.582c-106.912 0-193.634 86.721-193.634 193.634S650.415 803.85 757.327 803.85s193.634-86.722 193.634-193.634-86.722-193.634-193.634-193.634z m30.164 184.147c9.974 0 19.947 0.121 29.921-0.122 3.162 0 4.014 0.973 4.014 4.014-0.243 5.717 0 11.433 0 17.515h-50.112v27.974h49.747v21.529h-49.868c-0.122 1.824-0.243 3.284-0.243 4.743 0 11.069-0.122 22.137 0 33.205 0 3.163-0.974 4.136-4.014 4.014a249.923 249.923 0 0 0-19.096 0c-3.04 0.122-4.014-0.851-4.014-4.014 0.122-11.068 0.122-22.136 0.122-33.205v-4.5h-52.18v-21.528h51.936v-27.975h-52.3c0-6.933-0.122-13.38 0.121-19.704 0-0.73 2.311-1.825 3.528-1.825 11.92-0.121 23.839-0.121 35.88-0.121h4.866c-18.245-31.38-36.124-62.031-54.369-93.412 1.946-0.121 3.284-0.243 4.5-0.243 6.933 0 13.988 0.122 20.92-0.122 3.406-0.121 5.352 0.973 6.934 4.014 14.474 27.732 29.07 55.463 43.665 83.195 0.121 0.243 0.243 0.365 0.243 0.365 15.082-27.975 30.164-55.95 45.124-84.046 1.46-2.676 3.041-3.65 6.082-3.528 6.69 0.244 13.38 0 20.19 0.122 1.217 0 2.433 0.122 4.258 0.243-18.367 31.26-36.49 62.031-54.977 93.533 3.527-0.121 6.325-0.121 9.122-0.121z" fill="" p-id="14181"></path></svg>