<?xml version="1.0" standalone="no"?><!DOCTYPE svg PUBLIC "-//W3C//DTD SVG 1.1//EN" "http://www.w3.org/Graphics/SVG/1.1/DTD/svg11.dtd"><svg t="1584615528808" class="icon" viewBox="0 0 1024 1024" version="1.1" xmlns="http://www.w3.org/2000/svg" p-id="13284" xmlns:xlink="http://www.w3.org/1999/xlink" width="200" height="200"><defs><style type="text/css"></style></defs><path d="M927.650605 409.273361c-88.732927-79.054497-283.102776-248.075005-371.835704-327.146899-25.694195-22.877033-59.729359-22.817682-85.124749-0.190335-88.769766 79.100546-287.10595 244.76154-372.056737 327.337234-22.39301 21.773909-14.96176 50.365084 13.358239 50.365084h-0.808412c31.842219 0 51.483558 1.547239 51.483558 32.492019V899.264091c0 27.815509 19.668968 58.156538 48.282656 58.156538h621.044532c28.611641 0 28.621874-30.341029 28.621874-58.156538V492.130464c0-30.42494 25.206078-32.492018 53.271275-32.492019h0.810458c24.590048 0 31.768541-33.606399 12.95301-50.365084zM511.642866 841.111646c-128.489396 0-232.650711-104.159268-232.650711-232.648664 0-128.492466 104.161315-232.651734 232.650711-232.651734s232.650711 104.159268 232.650711 232.651734c0 128.488373-104.161315 232.648664-232.650711 232.648664z" p-id="13285"></path><path d="M528.397459 590.759785l-32.570813-4.652973c-10.857279-1.551332-19.387559-5.16872-25.591865-10.857279-5.428639-5.16872-8.142447-11.760858-8.142448-19.775392 0-10.081613 3.683902-18.418488 11.050684-25.009604 7.367805-6.592139 17.898649-9.887184 31.601742-9.887184 24.556279 0 43.428092 6.337335 56.611346 18.999726l34.122145-33.734312c-17.065677-16.468067-38.551014-26.609031-64.447825-30.43722v-60.818157H492.255307v59.718103c-22.948665 2.116197-41.675168 9.579169-56.142671 22.424732-17.320481 15.382339-25.979698 35.613102-25.979698 60.683081 0 23.011086 6.592139 41.101093 19.775392 54.28537 12.148691 11.891841 29.984918 19.521612 53.509705 22.877034l33.346479 4.652973c11.113105 1.811252 19.255553 5.040806 24.428365 9.69378 5.684466 5.428639 8.53028 13.183254 8.530281 23.264866 0 22.74912-16.285918 34.122145-48.856731 34.122145-28.953426 0-51.182706-7.754614-66.692959-23.264866l-34.897811 34.897811c13.183254 13.183254 27.785833 22.555715 43.815925 28.112268 14.08888 4.89038 30.477129 7.623631 49.1627 8.213055v48.070832h38.775118V751.314481c16.248056-3.469008 30.430056-9.870812 42.539862-19.218714 19.255553-14.862499 28.886911-35.344996 28.886911-61.458747 0-25.591865-7.110955-45.107337-21.326725-58.550511-11.889795-10.857279-29.466102-17.96414-52.731991-21.326724zM248.466931 243.967454c4.427846-6.601348 0-35.673477 0-35.673477 0-20.87033-14.838963-35.673477-36.29974-35.673478h-18.150382c-21.461801 0-36.299741 32.642444-36.299741 53.507658v89.184205c0.001023 0.167822 85.077677-62.889329 90.749863-71.344908z" p-id="13286"></path></svg>