<?xml version="1.0" standalone="no"?><!DOCTYPE svg PUBLIC "-//W3C//DTD SVG 1.1//EN" "http://www.w3.org/Graphics/SVG/1.1/DTD/svg11.dtd"><svg t="1584615934106" class="icon" viewBox="0 0 1024 1024" version="1.1" xmlns="http://www.w3.org/2000/svg" p-id="18399" xmlns:xlink="http://www.w3.org/1999/xlink" width="200" height="200"><defs><style type="text/css"></style></defs><path d="M339.5 363.5c-6.7 0-13.3-2.5-18.4-7.6l-94-94a25.953 25.953 0 0 1 0-36.8c10.2-10.2 26.6-10.2 36.8 0l94 94c10.2 10.2 10.2 26.6 0 36.8-5.1 5.1-11.7 7.6-18.4 7.6z" p-id="18400"></path><path d="M345.5 363.5c-6.7 0-13.3-2.5-18.4-7.6a25.953 25.953 0 0 1 0-36.8l94-94c10.2-10.2 26.6-10.2 36.8 0 10.2 10.2 10.2 26.6 0 36.8l-94 94c-5.1 5.1-11.7 7.6-18.4 7.6z" p-id="18401"></path><path d="M463.5 396.5h-250c-14.4 0-26-11.6-26-26s11.6-26 26-26h250c14.4 0 26 11.6 26 26s-11.6 26-26 26zM463.5 500.5h-250c-14.4 0-26-11.6-26-26s11.6-26 26-26h250c14.4 0 26 11.6 26 26s-11.6 26-26 26z" p-id="18402"></path><path d="M342.5 635.5c-14.4 0-26-11.6-26-26v-270c0-14.4 11.6-26 26-26s26 11.6 26 26v270c0 14.4-11.6 26-26 26zM725.5 993.5c-71.1 0-137.8-27.7-188.1-77.9-50.2-50.2-77.9-117-77.9-188.1s27.7-137.8 77.9-188.1c50.2-50.2 117-77.9 188.1-77.9s137.8 27.7 188.1 77.9c50.2 50.2 77.9 117 77.9 188.1 0 70.4-27.2 136.8-76.7 186.8-11.6 11.8-24.4 22.5-38 31.9-17.4 12-36.2 22-55.9 29.6-30.4 11.8-62.5 17.7-95.4 17.7z m0-480c-57.2 0-110.9 22.3-151.3 62.7s-62.7 94.2-62.7 151.3c0 57.2 22.3 110.9 62.7 151.3 40.4 40.4 94.2 62.7 151.3 62.7 26.5 0 52.3-4.8 76.8-14.2 15.8-6.1 30.9-14.1 44.9-23.8 10.9-7.6 21.2-16.2 30.6-25.7 39.8-40.3 61.7-93.7 61.7-150.3 0-57.2-22.3-110.9-62.7-151.3-40.4-40.4-94.1-62.7-151.3-62.7z" p-id="18403"></path><path d="M701.5 766.5c-14.4 0-26-11.6-26-26v-90c0-14.4 11.6-26 26-26s26 11.6 26 26v90c0 14.4-11.6 26-26 26z" p-id="18404"></path><path d="M803.5 774.5h-100c-14.4 0-26-11.6-26-26s11.6-26 26-26h100c14.4 0 26 11.6 26 26s-11.6 26-26 26zM418.1 932.5H137.5c-56.3 0-102-45.7-102-102v-691c0-56.3 45.7-102 102-102h691c56.3 0 102 45.7 102 102v291.1c0 14.2-11.1 26.1-25.3 26.5-14.7 0.4-26.7-11.4-26.7-26V151.5c0-34.2-27.8-62-62-62h-667c-34.2 0-62 27.8-62 62v667c0 34.2 27.8 62 62 62h269.1c14.6 0 26.4 12 26 26.7-0.4 14.2-12.4 25.3-26.5 25.3z" p-id="18405"></path></svg>