<?xml version="1.0" standalone="no"?><!DOCTYPE svg PUBLIC "-//W3C//DTD SVG 1.1//EN" "http://www.w3.org/Graphics/SVG/1.1/DTD/svg11.dtd"><svg t="1584615307736" class="icon" viewBox="0 0 1024 1024" version="1.1" xmlns="http://www.w3.org/2000/svg" p-id="9351" xmlns:xlink="http://www.w3.org/1999/xlink" width="200" height="200"><defs><style type="text/css"></style></defs><path d="M651.94666667 535.89333333H373.76c-11.94666667 0-20.48-8.53333333-20.48-20.48v-6.82666666c0-11.94666667 8.53333333-20.48 20.48-20.48h278.18666667c11.94666667 0 20.48 8.53333333 20.48 20.48v6.82666666c0 11.94666667-8.53333333 20.48-20.48 20.48z m58.02666666-105.81333333H315.73333333v165.54666667h394.24v-165.54666667z" fill="#8a8a8a" p-id="9352"></path><path d="M921.6 250.88H907.94666667c-6.82666667 0-11.94666667 1.70666667-18.77333334 3.41333333v-6.82666666c0-52.90666667-40.96-95.57333333-92.16-95.57333334h-1.70666666c-51.2 0-92.16 42.66666667-92.16 95.57333334v527.36c0 52.90666667 40.96 95.57333333 92.16 95.57333333h1.70666666c51.2 0 92.16-42.66666667 92.16-95.57333333v-11.94666667c6.82666667 1.70666667 11.94666667 3.41333333 18.77333334 3.41333333h13.65333333c39.25333333 0 69.97333333-32.42666667 69.97333333-73.38666666V324.26666667c0-39.25333333-30.72-73.38666667-69.97333333-73.38666667z m-95.57333333 522.24c-1.70666667 15.36-13.65333333 27.30666667-27.30666667 27.30666667h-1.70666667c-15.36 0-27.30666667-13.65333333-27.30666666-30.72V254.29333333c0-17.06666667 11.94666667-30.72 27.30666666-30.72h1.70666667c15.36 0 27.30666667 13.65333333 27.30666667 30.72v518.82666667z m95.57333333-71.68h-11.94666667c-1.70666667 0-3.41333333-1.70666667-5.12-1.70666667-1.70666667-1.70666667-1.70666667-3.41333333-1.70666666-5.12V324.26666667c0-5.12 3.41333333-8.53333333 6.82666666-8.53333334h11.94666667c3.41333333 0 6.82666667 3.41333333 6.82666667 8.53333334v370.34666666c0 3.41333333-3.41333333 6.82666667-6.82666667 6.82666667zM320.85333333 247.46666667c0-52.90666667-40.96-95.57333333-92.16-95.57333334h-1.70666666c-51.2 0-92.16 42.66666667-92.16 95.57333334v6.82666666c-6.82666667-1.70666667-11.94666667-3.41333333-18.77333334-3.41333333H102.4c-39.25333333 0-69.97333333 32.42666667-69.97333333 73.38666667v368.64C32.42666667 733.86666667 63.14666667 768 102.4 768h13.65333333c6.82666667 0 11.94666667-1.70666667 18.77333334-3.41333333v11.94666666c0 52.90666667 40.96 95.57333333 92.16 95.57333334h1.70666666c51.2 0 92.16-42.66666667 92.16-95.57333334v-529.06666666zM122.88 679.25333333v15.36c0 3.41333333-3.41333333 6.82666667-6.82666667 6.82666667H102.4c-1.70666667 0-3.41333333-1.70666667-5.12-1.70666667-1.70666667-1.70666667-1.70666667-3.41333333-1.70666667-5.12V324.26666667c0-5.12 3.41333333-8.53333333 6.82666667-8.53333334h13.65333333c3.41333333 0 6.82666667 3.41333333 6.82666667 8.53333334v354.98666666z m133.12 90.45333334c0 17.06666667-11.94666667 30.72-27.30666667 30.72h-1.70666666c-15.36 0-27.30666667-13.65333333-27.30666667-30.72V254.29333333c0-17.06666667 11.94666667-30.72 27.30666667-30.72h1.70666666c15.36 0 27.30666667 13.65333333 27.30666667 30.72v515.41333334z" fill="#8a8a8a" p-id="9353"></path></svg>