<?xml version="1.0" standalone="no"?><!DOCTYPE svg PUBLIC "-//W3C//DTD SVG 1.1//EN" "http://www.w3.org/Graphics/SVG/1.1/DTD/svg11.dtd"><svg t="1584615451926" class="icon" viewBox="0 0 1024 1024" version="1.1" xmlns="http://www.w3.org/2000/svg" p-id="12341" xmlns:xlink="http://www.w3.org/1999/xlink" width="200" height="200"><defs><style type="text/css"></style></defs><path d="M959.84 521.548c0-40.799-33.001-73.963-73.705-74.36V241.672c0-58.004-47.198-105.211-105.219-105.211h-538.76c-58.02 0-105.218 47.208-105.218 105.211v205.723c-39.66 1.589-71.494 34.115-71.494 74.153 0 40.031 31.834 72.539 71.494 74.129V780.43c0 12.54 10.157 22.698 22.688 22.698h18.025v28.292c0 28.467 14.552 41.492 26.756 47.364 13.29 6.391 28.716 6.908 44.668 6.908h26.116c21.367 0 71.425 0 71.425-54.272v-28.292h329.839v28.292c0 28.467 14.553 41.492 26.765 47.364 13.283 6.391 28.708 6.908 44.668 6.908h26.108c21.375 0 71.433 0 71.433-54.272v-28.292h18.017c12.53 0 22.687-10.158 22.687-22.698V595.918c40.705-0.413 73.706-33.58 73.706-74.37z m-849.02 0c0-15.027 11.486-27.275 26.117-28.776v57.546c-14.63-1.52-26.117-13.75-26.117-28.77zM301.25 831.42c0 4.113-0.648 6.08-0.63 6.219-2.334 1.796-10.9 2.695-25.428 2.695h-26.116c-14.527 0-23.086-0.899-25.167-2.384-0.243-0.449-0.89-2.417-0.89-6.53v-28.292h78.23v28.292z m498.814 0c0 4.113-0.658 6.08-0.64 6.219-2.33 1.796-10.89 2.695-25.426 2.695h-26.108c-14.535 0-23.095-0.899-25.168-2.384-0.24-0.449-0.899-2.417-0.899-6.53v-28.292h78.24v28.292z m40.695-200.23H720.693c-12.533 0-22.69 10.157-22.69 22.698 0 12.54 10.157 22.696 22.69 22.696h120.065v81.184H182.306v-81.184h120.073c12.533 0 22.69-10.157 22.69-22.696 0-12.541-10.157-22.698-22.69-22.698H182.306v-93.447h658.453v93.447z m0-138.817H182.306v-250.7c0-32.993 26.85-59.836 59.85-59.836h538.76c33 0 59.842 26.843 59.842 59.835v250.701z m45.376 58.151v-57.977c15.684 0.414 28.337 13.231 28.337 29.001 0.001 15.78-12.653 28.596-28.337 28.976z" p-id="12342"></path></svg>