<?xml version="1.0" standalone="no"?><!DOCTYPE svg PUBLIC "-//W3C//DTD SVG 1.1//EN" "http://www.w3.org/Graphics/SVG/1.1/DTD/svg11.dtd"><svg t="1584615747268" class="icon" viewBox="0 0 1024 1024" version="1.1" xmlns="http://www.w3.org/2000/svg" p-id="16863" xmlns:xlink="http://www.w3.org/1999/xlink" width="200" height="200"><defs><style type="text/css"></style></defs><path d="M938.496 323.264H85.504c-18.112 0-32.832 14.08-32.832 31.488v283.392c0 17.344 14.656 31.424 32.832 31.424h32.768v314.88c0 17.408 14.72 31.488 32.832 31.488H872.96c18.048 0 32.832-14.08 32.832-31.488v-314.88h32.768c18.112 0 32.832-14.08 32.832-31.424V354.752c-0.064-17.408-14.784-31.488-32.896-31.488zM446.4 921.472c0 17.344-14.656 31.488-32.832 31.488h-196.8c-18.176 0-32.832-14.144-32.832-31.488V669.504c0-17.344 14.656-31.424 32.832-31.424h196.864c18.112 0 32.832 14.144 32.832 31.424v251.968z m0-377.856c0 17.408-14.656 31.488-32.832 31.488H151.104c-18.112 0-32.832-14.08-32.832-31.488V417.728c0-17.408 14.72-31.488 32.832-31.488h262.464c18.112 0 32.832 14.08 32.832 31.488v125.888z m393.728 377.856c0 17.344-14.656 31.488-32.832 31.488H610.432c-18.112 0-32.832-14.144-32.832-31.488V669.504c0-17.344 14.656-31.424 32.832-31.424h196.864c18.112 0 32.832 14.144 32.832 31.424v251.968z m65.6-377.856c0 17.408-14.72 31.488-32.832 31.488H610.432c-18.112 0-32.832-14.08-32.832-31.488V417.728c0-17.408 14.656-31.488 32.832-31.488H872.96c18.048 0 32.832 14.08 32.832 31.488v125.888zM366.336 322.944h301.888c51.712-35.648 100.608-81.984 106.368-132.48 2.88-24.64-2.624-60.736-45.056-92.928-23.488-17.856-47.424-26.88-70.912-26.88-74.816 0-117.184 88.128-140.096 166.848C491.2 137.152 438.4 8.128 347.648 8.128c-26.432 0-52.864 10.944-78.4 32.704-50.56 42.88-55.552 87.488-50.752 117.312 10.432 66.688 80.384 124.032 147.84 164.8zM658.56 146.24c7.232 0 16.64 4.16 27.072 12.032 16.896 12.864 15.936 20.736 15.68 23.36-3.136 27.52-56.96 70.848-119.744 106.56 18.368-76.16 48.64-141.952 76.992-141.952zM316.224 98.944c8.32-6.976 20.416-15.296 31.36-15.296 40.64 0 82.432 102.336 106.752 201.856-76.736-39.232-156.032-94.912-163.072-139.584-1.024-6.144-3.584-22.656 24.96-46.976z" fill="" p-id="16864"></path></svg>