<?xml version="1.0" standalone="no"?><!DOCTYPE svg PUBLIC "-//W3C//DTD SVG 1.1//EN" "http://www.w3.org/Graphics/SVG/1.1/DTD/svg11.dtd"><svg t="1584615208120" class="icon" viewBox="0 0 1024 1024" version="1.1" xmlns="http://www.w3.org/2000/svg" p-id="7795" xmlns:xlink="http://www.w3.org/1999/xlink" width="200" height="200"><defs><style type="text/css"></style></defs><path d="M682.666667 917.333333v12.394667c0 16.725333-14.336 30.272-32 30.272s-32-13.546667-32-30.272V917.333333H405.333333v12.394667c0 16.725333-14.336 30.272-32 30.272s-32-13.546667-32-30.272V917.333333h-53.333333C234.986667 917.333333 192 875.584 192 824.085333V285.226667C192 233.749333 234.986667 192 288 192H362.666667V126.485333C362.666667 89.216 397.973333 64 437.333333 64h149.333334C626.026667 64 661.333333 89.216 661.333333 126.485333V192h74.666667c53.013333 0 96 41.749333 96 93.248V824.106667C832 875.584 789.013333 917.333333 736 917.333333H682.666667zM426.666667 192h170.666666V128h-170.666666v64z m-138.666667 64c-17.664 0-32 13.824-32 30.890667v535.552c0 17.066667 14.336 30.890667 32 30.890666h448c17.664 0 32-13.824 32-30.890666V286.890667c0-17.066667-14.336-30.890667-32-30.890667h-448zM576 437.333333a32 32 0 0 1 64 0v234.666667a32 32 0 0 1-64 0v-234.666667z m-192 0a32 32 0 0 1 64 0v234.666667a32 32 0 0 1-64 0v-234.666667z" fill="#555555" p-id="7796"></path></svg>