<?xml version="1.0" standalone="no"?><!DOCTYPE svg PUBLIC "-//W3C//DTD SVG 1.1//EN" "http://www.w3.org/Graphics/SVG/1.1/DTD/svg11.dtd"><svg t="1584615485755" class="icon" viewBox="0 0 1024 1024" version="1.1" xmlns="http://www.w3.org/2000/svg" p-id="12509" xmlns:xlink="http://www.w3.org/1999/xlink" width="200" height="200"><defs><style type="text/css"></style></defs><path d="M509.952 1.536C229.376 1.536 2.048 229.376 2.048 509.952s227.328 507.904 507.904 507.904c280.576 0 507.904-227.328 507.904-507.904C1017.856 229.376 790.528 1.536 509.952 1.536zM340.48 256c7.68-1.024 38.912-4.608 56.32-2.048 8.704 2.048 16.384 9.216 22.528 16.384 0.512 1.024 2.048 0.512 2.048-0.512 0.512-12.288 4.096-23.552 13.824-39.936 0.512-0.512 1.024-0.512 1.536-0.512l20.48 11.776c0.512 0.512 0.512 1.024 0.512 1.536-7.168 10.752-9.728 19.968-9.728 28.672 0 1.024 1.024 1.536 1.536 1.024 8.704-4.096 17.92-7.68 26.624-6.656 19.968 2.048 36.864 10.24 41.984 12.8 0.512 0.512 1.024 1.536 0 2.048-6.144 4.096-31.232 20.992-47.616 26.624-1.024 0.512-1.024 1.536-0.512 2.048 4.608 4.608 8.192 9.216 11.264 14.848 5.12 18.432 3.584 36.864 3.072 41.984 0 0.512-0.512 1.024-1.024 1.024h-0.512c-6.656-4.096-33.28-20.992-44.544-34.304-3.584-4.096-5.12-9.216-6.144-14.848 0-1.024-1.536-1.536-2.048-0.512-7.168 8.704-16.896 17.408-27.136 19.456-19.456 4.608-37.888 2.048-44.032 1.536-1.024 0-1.024-1.024-0.512-2.048 4.608-6.144 23.552-30.72 37.376-41.472 0.512-0.512 0.512-2.048-0.512-2.048-9.216 0-17.408-2.048-23.552-6.144-16.896-10.752-27.648-25.6-30.72-30.208-2.048 0.512-1.536-0.512-0.512-0.512zM223.744 436.736c0-67.584 47.104-125.952 113.664-151.04 0.512 0 1.024 0 1.024 0.512 6.144 6.144 13.312 11.776 19.968 16.384 0.512 0 0.512 0.512 1.024 0.512-7.68 8.704-14.336 17.408-19.456 25.6l-14.848 21.504v0.512c0 0.512 0.512 1.024 1.024 1.536l26.624 5.12c16.384 3.072 37.376 2.56 53.76-1.024 6.144-1.536 12.288-4.096 17.92-7.68 0.512-0.512 1.024 0 1.536 0 12.288 13.312 33.28 26.624 47.616 35.84l22.528 13.824h0.512c0.512 0 1.024-0.512 1.536-1.024l4.096-25.6c2.56-15.872 1.024-36.352-3.072-51.712-0.512-1.024-1.024-2.56-1.024-3.072 0-0.512 0-1.024 0.512-1.536 6.656-4.096 13.312-8.192 19.456-12.288 0.512 0 1.024-0.512 1.024 0 27.136 16.896 48.64 40.448 62.464 67.584v1.024c-6.144 9.728-14.336 31.744-14.336 32.256l-62.976 23.552c-62.464 23.552-112.64 49.664-165.376 90.112-17.408 13.824-32.768 28.16-46.08 44.032-0.512 0.512-1.024 0.512-1.536 0-41.984-29.696-67.584-74.752-67.584-124.928z m548.864 65.536l-6.144 4.096c-0.512 0.512-1.024 0.512-1.536 0l-6.144-4.096s-0.512 0-1.024-0.512-1.536 0-1.536 0.512c-41.472 128.512-160.768 242.688-299.008 286.208-72.704 23.04-116.224 12.8-156.672-47.616-31.232-45.056-46.08-117.76 52.224-194.048C445.952 474.112 510.976 465.92 599.04 428.032c1.024-0.512 1.024-1.536 0-2.048l-2.048-1.024c-0.512 0-0.512-0.512-0.512-1.024l0.512-6.144s1.024-43.008 65.024-73.728c13.312-6.144 26.112-10.752 38.912-12.8 7.68-1.536 15.36-1.536 22.528-1.024 0.512 0 1.024-0.512 1.024-1.024 0.512-8.704 0.512-17.408 0.512-25.6-0.512-12.8-2.56-24.064-4.608-31.232l-4.608-14.336c-0.512-1.024 0.512-1.536 1.024-1.536l15.36 1.024 46.08 3.584 9.728 0.512c0.512 0 1.024 0.512 1.024 1.024V271.36c0 10.752-1.536 25.6-4.096 41.472-2.56 12.288-5.632 25.6-9.216 38.4 0 0.512 0 1.024 0.512 1.024 6.144 6.144 11.264 12.8 15.872 22.016 5.12 10.752 9.728 23.04 12.8 36.864 10.752 60.928-31.744 91.136-32.256 91.136z" fill="#898989" p-id="12510"></path><path d="M779.776 415.744c-2.048-12.288-5.632-22.528-10.24-30.72-4.096-8.704-10.24-15.36-16.384-19.968l-5.12-4.096c-0.512-0.512-0.512-1.024-0.512-1.024l2.048-6.144c4.608-13.824 8.704-28.672 11.264-43.008 1.536-9.728 3.072-18.432 3.584-26.112 0-0.512-0.512-1.024-1.024-1.024l-17.408-1.536c-0.512 0-1.536 0.512-1.024 1.536 1.024 6.144 1.536 12.8 2.048 19.968 0.512 13.312 0.512 28.16-1.536 41.984l-1.536 10.752c0 0.512-0.512 1.024-1.536 1.024l-11.776-2.56c-8.704-2.048-17.92-2.048-27.648-0.512-9.728 0.512-20.48 4.096-31.232 9.728-34.304 16.384-46.08 35.84-50.176 46.08-0.512 0.512 0 1.536 1.024 1.536 9.216 2.048 25.088 3.584 47.616-4.096l17.92-5.632c1.024-0.512 1.536 0.512 1.536 1.536l-4.096 17.408c-3.584 15.36-1.536 29.184 1.024 37.888 0 0.512 1.024 1.024 1.536 1.024 8.704-3.072 20.992-9.216 33.792-24.576l13.312-15.36c0.512-0.512 1.536-0.512 2.048 0.512l4.608 19.456c4.608 18.432 14.848 31.232 22.528 38.912 0.512 0.512 1.024 0.512 1.536 0 8.192-10.752 20.48-30.72 13.824-62.976zM635.904 591.872c-0.512 0.512-49.152 56.32-92.672 74.24-7.168 3.072-10.752 11.264-7.68 18.432 2.048 5.632 7.168 8.704 12.8 8.704 1.536 0 3.584-0.512 5.12-1.024 50.176-20.48 101.376-79.36 103.424-81.92 5.12-5.632 4.608-14.848-1.536-19.456-5.632-5.12-14.848-4.608-19.456 1.024z" fill="#898989" p-id="12511"></path></svg>