<?xml version="1.0" standalone="no"?><!DOCTYPE svg PUBLIC "-//W3C//DTD SVG 1.1//EN" "http://www.w3.org/Graphics/SVG/1.1/DTD/svg11.dtd"><svg t="1584616044131" class="icon" viewBox="0 0 1024 1024" version="1.1" xmlns="http://www.w3.org/2000/svg" p-id="20075" xmlns:xlink="http://www.w3.org/1999/xlink" width="200" height="200"><defs><style type="text/css"></style></defs><path d="M512 106.667C736 106.667 917.333 288 917.333 512S736 917.333 512 917.333 106.667 736 106.667 512 288 106.667 512 106.667m0-64C251.733 42.667 42.667 251.733 42.667 512S251.733 981.333 512 981.333 981.333 772.267 981.333 512 772.267 42.667 512 42.667z" p-id="20076"></path><path d="M512 448c-36.267 0-64 27.733-64 64s27.733 64 64 64 64-27.733 64-64-27.733-64-64-64z m-234.667 0c-36.266 0-64 27.733-64 64s27.734 64 64 64 64-27.733 64-64-27.733-64-64-64z m469.334 0c-36.267 0-64 27.733-64 64s27.733 64 64 64 64-27.733 64-64-27.734-64-64-64z" p-id="20077"></path></svg>