<?xml version="1.0" standalone="no"?><!DOCTYPE svg PUBLIC "-//W3C//DTD SVG 1.1//EN" "http://www.w3.org/Graphics/SVG/1.1/DTD/svg11.dtd"><svg t="1584641245228" class="icon" viewBox="0 0 1024 1024" version="1.1" xmlns="http://www.w3.org/2000/svg" p-id="21600" xmlns:xlink="http://www.w3.org/1999/xlink" width="200" height="200"><defs><style type="text/css"></style></defs><path d="M516.87619 0c136.533333 0 263.314286 58.514286 360.838096 146.285714 87.771429 97.52381 146.285714 224.304762 146.285714 370.590476 0 136.533333-58.514286 263.314286-146.285714 360.838096-97.52381 87.771429-224.304762 146.285714-360.838096 146.285714-146.285714 0-273.066667-58.514286-370.590476-146.285714C58.514286 780.190476 0 653.409524 0 516.87619c0-146.285714 58.514286-273.066667 146.285714-370.590476C243.809524 58.514286 370.590476 0 516.87619 0zM341.333333 204.8h-19.504762c-19.504762 0-39.009524 19.504762-39.009523 39.009524v546.133333c0 19.504762 19.504762 29.257143 39.009523 29.257143h19.504762c19.504762 0 29.257143-9.752381 29.257143-29.257143V458.361905h78.019048V234.057143h-78.019048c0-19.504762-9.752381-29.257143-29.257143-29.257143z m87.771429 68.266667h-58.514286v-9.752381h58.514286v9.752381z m-58.514286 78.019047v-9.752381h58.514286v9.752381h-58.514286z m0 58.514286h58.514286v19.504762h-58.514286v-19.504762z m0-19.504762v-9.752381h58.514286v9.752381h-58.514286z m0-78.019048v-9.75238h58.514286v9.75238h-58.514286z m-58.514286-68.266666c0-9.752381 0-9.752381 9.752381-9.752381h19.504762v555.885714h-29.257143V243.809524z m390.095239 58.514286c0-9.752381-9.752381-19.504762-19.504762-29.257143l-9.752381-58.514286s-9.752381 0-9.752381-9.752381H565.638095c-9.752381 0-9.752381 9.752381-9.752381 19.504762l-19.504762 48.761905c-9.752381 9.752381-19.504762 19.504762-19.504762 29.257143l-39.009523 487.619047c0 19.504762 19.504762 29.257143 29.257143 29.257143h204.8c19.504762 0 29.257143-9.752381 29.257142-29.257143l-39.009523-487.619047zM516.87619 741.180952h195.04762v48.761905H507.12381l9.75238-48.761905z m126.780953-507.123809l9.752381 39.009524h-78.019048l9.752381-39.009524h58.514286z m58.514286 487.619047H516.87619l29.257143-419.35238h126.780953l29.257143 419.35238z m156.038095-546.133333C770.438095 87.771429 643.657143 29.257143 516.87619 29.257143 380.342857 29.257143 263.314286 87.771429 175.542857 175.542857S29.257143 380.342857 29.257143 516.87619c0 126.780952 58.514286 253.561905 146.285714 341.333334 87.771429 78.019048 204.8 136.533333 341.333333 136.533333 126.780952 0 253.561905-58.514286 341.333334-136.533333 78.019048-87.771429 136.533333-214.552381 136.533333-341.333334 0-136.533333-58.514286-253.561905-136.533333-341.333333z" p-id="21601"></path></svg>