<?xml version="1.0" standalone="no"?><!DOCTYPE svg PUBLIC "-//W3C//DTD SVG 1.1//EN" "http://www.w3.org/Graphics/SVG/1.1/DTD/svg11.dtd"><svg t="1584615259195" class="icon" viewBox="0 0 1024 1024" version="1.1" xmlns="http://www.w3.org/2000/svg" p-id="8556" xmlns:xlink="http://www.w3.org/1999/xlink" width="200" height="200"><defs><style type="text/css"></style></defs><path d="M755.87 242.885h-47.152v-34.556c0-54.628-44.72-99.089-99.67-99.089H414.187c-54.949 0-99.65 44.723-99.65 99.691v33.954h-47.154c-76.848 0-139.35 62.523-139.35 139.37v395.249c0 76.827 62.502 139.35 139.35 139.35h488.488c76.848 0 139.352-62.523 139.352-139.35V382.255c0-76.848-62.504-139.37-139.352-139.37zM373.14 208.93c0-22.662 18.425-41.066 41.047-41.066h194.86c23.024 0 41.067 17.76 41.067 40.464v34.556H373.141V208.93z m463.476 568.572c0 44.52-36.223 80.743-80.745 80.743H267.383c-44.522 0-80.745-36.223-80.745-80.743V382.255c0-44.521 36.223-80.745 80.745-80.745h488.488c44.522 0 80.745 36.224 80.745 80.745v395.248zM637.879 514.05h-60.433v-60.453c0-17.72-14.506-32.226-32.227-32.226h-67.183c-17.72 0-32.226 14.504-32.226 32.226v60.453h-60.432c-17.74 0-32.247 14.505-32.247 32.245v67.143c0 17.74 14.506 32.247 32.247 32.247h60.432v60.454c0 17.718 14.506 32.225 32.226 32.225h67.183c17.72 0 32.227-14.507 32.227-32.225v-60.454h60.433c17.74 0 32.264-14.507 32.264-32.247v-67.143c0-17.74-14.525-32.245-32.264-32.245z" fill="" p-id="8557"></path></svg>