<?xml version="1.0" standalone="no"?><!DOCTYPE svg PUBLIC "-//W3C//DTD SVG 1.1//EN" "http://www.w3.org/Graphics/SVG/1.1/DTD/svg11.dtd"><svg t="1584615634192" class="icon" viewBox="0 0 1024 1024" version="1.1" xmlns="http://www.w3.org/2000/svg" p-id="15030" xmlns:xlink="http://www.w3.org/1999/xlink" width="200" height="200"><defs><style type="text/css"></style></defs><path d="M705.16 683.71v176.48c0 55.82-44.23 100.45-100.08 100.61-61.49 0.17-122.99 0.15-184.48 0.01-56-0.13-100.44-44.9-100.44-100.88 0-117.99-0.01-235.98 0-353.97 0-51.7 40.69-95.39 92.26-99.09 3.98-0.29 7.98-0.43 11.97-0.43 60.16-0.03 120.33-0.44 180.48 0.13 40.24 0.38 70.22 19.12 89.43 54.51 7.5 13.82 10.89 28.86 10.88 44.65-0.05 59.33-0.02 118.66-0.02 177.98zM513.22 384c-74.81 0-149.62 0.02-224.43-0.02-16.28-0.01-30.29-12.55-31.76-28.16-1.62-17.23 8.93-32.06 25.42-35.42 2.9-0.59 5.96-0.43 8.95-0.55 9.44-0.39 18.9 0.74 28.32-0.62 1-9.28 0.24-18.59 0.41-27.89 0.19-10.05 1.61-19.88 4.67-29.46 13.46-42.2 51.19-69.93 95.4-69.99 3.45 0 6.51-0.75 9.51-2.42 22.99-12.79 35.7-31.66 35.53-58.6-0.06-10-1.42-19.9-1.77-29.81-0.93-27.03 18.28-46.08 40.49-50.13 30.94-5.64 64.29 20.96 55.97 61.24-2.74 13.26-2.29 26.9 0.34 40.22 4.09 20.64 26.42 38.77 47.91 39.46 54.45 1.75 96.95 45.56 96.97 99.95 0 7.83 0.22 15.67-0.09 23.49-0.16 3.89 1.19 4.75 4.82 4.65 8.99-0.25 17.99-0.12 26.99-0.07 18.46 0.09 32.31 13.91 32.28 32.16-0.03 18.13-14.05 31.98-32.51 31.99-74.47-0.01-148.94-0.02-223.42-0.02zM936.85 640.55c-0.28 83.04-60.68 153.73-141.72 166.24-10.67 1.65-21.48 3.18-32.31 1.49-21.5-3.37-35.48-21.5-33.81-43.54 1.51-19.96 18.93-35.35 39.88-35.97 36.19-1.07 63.2-17.73 79.08-50.18 26.5-54.18-9.37-117.92-69.48-124.88-6.45-0.75-12.96-0.12-19.37-1.69-19.53-4.78-32.4-23.59-30.03-44.2 2.21-19.22 19.5-34.57 39.05-34.67 83.16-0.46 154.64 60.68 166.71 142.62 1.25 8.41 1.7 16.89 2 24.78zM250.69 473.16c27.8 0 43.89 13.76 46.59 36.56 2.57 21.73-15.29 42.75-37.38 43.19-21.53 0.43-41.18 5.97-57.74 20.03-27.83 23.63-38.44 53.96-29.67 89.16 8.81 35.39 32.59 57.05 68.4 65.02 5.54 1.23 11.18 1.65 16.85 1.74 22.22 0.34 39.72 17.82 39.83 39.72 0.1 22.26-17.87 40.18-40.38 40.27-81.55 0.32-152.5-60.06-165.31-140.69-14.28-89.83 43.15-173.06 132.4-191.78 9.95-2.09 20.06-3.12 26.41-3.22z" fill="#333333" p-id="15031"></path></svg>