<?xml version="1.0" standalone="no"?><!DOCTYPE svg PUBLIC "-//W3C//DTD SVG 1.1//EN" "http://www.w3.org/Graphics/SVG/1.1/DTD/svg11.dtd"><svg t="1584615142263" class="icon" viewBox="0 0 1024 1024" version="1.1" xmlns="http://www.w3.org/2000/svg" p-id="6393" xmlns:xlink="http://www.w3.org/1999/xlink" width="200" height="200"><defs><style type="text/css"></style></defs><path d="M954.826036 598.09689C930.469302 423.855474 851.936691 302.158784 763.850493 302.158784c-3.488451 0-7.018857 0.196475-10.484795 0.580215-33.177634 3.683902-64.111157 23.420409-90.039689 57.285704L359.885022 360.024703c-25.931602-33.865295-56.862056-53.601802-90.038666-57.285704-3.466961-0.38374-6.999414-0.580215-10.489912-0.580215-88.082104 0-166.612669 121.69669-190.973496 295.938106-11.867282 84.910878-5.799076 168.753425 17.090237 236.09209 24.590048 72.334445 65.347311 115.977431 114.759697 122.879632 4.523013 0.636496 9.141194 0.956791 13.72049 0.956791 68.355831 0 134.616954-69.40779 175.219697-182.346001l244.859777 0c40.603767 112.938212 106.870006 182.346001 175.219697 182.346001 4.581342 0 9.198499-0.321318 13.726629-0.956791 49.412386-6.9022 90.167602-50.54621 114.752534-122.879632C960.627159 766.850315 966.696388 683.006745 954.826036 598.09689L954.826036 598.09689zM816.5129 910.821311c-24.901133 3.472078-52.204989-11.218506-78.589916-41.911552-25.952068-30.196743-48.435129-73.013921-65.013713-123.824143-3.131317-9.607822-12.088316-16.108886-22.199605-16.108886L372.495224 728.97673c-10.106172 0-19.062148 6.502088-22.200628 16.108886-16.578584 50.815339-39.057551 93.631494-65.00655 123.824143-26.380834 30.693046-53.700039 45.378513-78.589916 41.906435-62.449307-8.729825-115.087155-141.555993-92.060719-306.252009 10.489912-75.049277 32.401967-142.549623 61.692061-190.072987 26.090215-42.323944 55.573713-65.630766 83.026972-65.630766 1.775436 0 3.569292 0.099261 5.329379 0.294712 22.103414 2.453888 44.819788 19.279089 63.974034 47.376007 4.349051 6.378268 11.57257 10.1952 19.294438 10.1952l327.299371 0c7.721869 0 14.94334-3.815909 19.294438-10.1952 19.151176-28.096918 41.87062-44.917002 63.967894-47.376007 1.76725-0.195451 3.558036-0.294712 5.332449-0.294712 27.451212 0 56.935734 23.310915 83.026972 65.630766 29.29214 47.52848 51.206242 115.028826 61.692061 190.072987C931.601078 769.260202 878.955044 902.091486 816.5129 910.821311L816.5129 910.821311z" p-id="6394"></path><path d="M366.533442 551.328727l-50.435693 0 0-50.435693c0-20.75572-6.581905-37.578874-27.329439-37.578874-20.754696 0-27.330462 16.823154-27.330462 37.578874l0 50.435693-50.440809 0c-20.754696 0-37.57785 6.581905-37.57785 27.329439 0 20.753673 16.823154 27.327392 37.57785 27.327392l50.440809 0 0 50.442856c0 20.754696 6.575766 37.578874 27.330462 37.578874 20.747533 0 27.329439-16.823154 27.329439-37.578874l0-50.442856 50.435693 0c20.75265 0 37.57785-6.573719 37.57785-27.327392C404.111293 557.907563 387.286092 551.328727 366.533442 551.328727L366.533442 551.328727z" p-id="6395"></path><path d="M659.673829 486.316038c0 11.168364 4.598738 22.26612 12.497639 30.163997 7.896854 7.895831 18.99461 12.496615 30.163997 12.496615 11.166317 0 22.265096-4.599761 30.16195-12.496615 7.897877-7.897877 12.495592-18.995633 12.495592-30.163997 0-11.166317-4.596691-22.265096-12.495592-30.163997-7.896854-7.896854-18.995633-12.495592-30.16195-12.495592-11.169387 0-22.267143 4.598738-30.163997 12.495592C664.274614 464.051965 659.673829 475.14972 659.673829 486.316038L659.673829 486.316038z" p-id="6396"></path><path d="M659.673829 669.361981c0 11.169387 4.598738 22.267143 12.497639 30.166043 7.896854 7.895831 18.99461 12.496615 30.163997 12.496615 11.166317 0 22.265096-4.598738 30.16195-12.496615 7.897877-7.898901 12.495592-18.995633 12.495592-30.166043 0-11.166317-4.596691-22.264073-12.495592-30.16195-7.896854-7.900947-18.995633-12.500709-30.16195-12.500709-11.169387 0-22.267143 4.599761-30.163997 12.500709C664.274614 647.098931 659.673829 658.195663 659.673829 669.361981L659.673829 669.361981z" p-id="6397"></path><path d="M565.673945 577.788355c0 11.168364 4.593622 22.269189 12.492522 30.167067 7.897877 7.894807 18.999726 12.492522 30.167067 12.492522 11.166317 0 22.270213-4.597715 30.166043-12.492522 7.897877-7.898901 12.494569-19.000749 12.494569-30.167067s-4.595668-22.271236-12.494569-30.166043c-7.895831-7.895831-18.999726-12.492522-30.166043-12.492522-11.167341 0-22.269189 4.594645-30.167067 12.492522C570.269613 555.517119 565.673945 566.622038 565.673945 577.788355L565.673945 577.788355z" p-id="6398"></path><path d="M749.746264 577.788355c0 11.168364 4.595668 22.269189 12.494569 30.167067 7.895831 7.894807 18.99768 12.492522 30.166043 12.492522 11.166317 0 22.271236-4.597715 30.167067-12.492522 7.895831-7.898901 12.491499-19.000749 12.491499-30.167067s-4.593622-22.271236-12.491499-30.166043c-7.896854-7.895831-19.000749-12.492522-30.167067-12.492522-11.168364 0-22.270213 4.594645-30.166043 12.492522C754.341932 555.517119 749.746264 566.622038 749.746264 577.788355L749.746264 577.788355z" p-id="6399"></path><path d="M390.064368 360.680643 390.064368 178.956811c0-42.294268 22.199605-92.922343 91.815125-92.922343 69.616544 0 94.888114 50.628074 94.888114 92.922343l0 21.872147c0.208754 10.984169 4.285606 47.823192 47.443545 47.823192 45.149293 0 47.442522-39.844473 47.442522-47.823192L671.653675 64.510246l44.370557 0 0 136.318712c0 42.294268-22.197558 92.931552-91.814102 92.931552s-92.838432-50.637284-92.838432-92.931552l0-21.872147c-0.207731-10.984169-6.334265-47.823192-49.493228-47.823192-45.149293 0-47.443545 39.844473-47.443545 47.823192l0 181.723831" p-id="6400"></path></svg>